HIERARCHY
ROOT pelvis
{
  OFFSET 0 100 0
  CHANNELS 6 Xposition Yposition Zposition Zrotation Xrotation Yrotation
  JOINT pelvis_right_femur
  {
    OFFSET -10.78128 -3.44521 -0.5502486
    CHANNELS 3 Zrotation Xrotation Yrotation
    JOINT right_femur_tibia
    {
      OFFSET -0.8047443 -44.0398 -0.1307829
      CHANNELS 3 Zrotation Xrotation Yrotation
      JOINT right_tibia_foot
      {
        OFFSET 3.006224 -47.83518 -5
        CHANNELS 3 Zrotation Xrotation Yrotation
        End Site
        {
          OFFSET 0 -5 15
        }
      }
    }
  }
  JOINT pelvis_left_femur
  {
    OFFSET 10.78128 -3.44521 -0.5502486
    CHANNELS 3 Zrotation Xrotation Yrotation
    JOINT left_femur_tibia
    {
      OFFSET 0.8047443 -44.0398 -0.1307829
      CHANNELS 3 Zrotation Xrotation Yrotation
      JOINT left_tibia_foot
      {
        OFFSET -4.370144 -48.10324 -4.275266
        CHANNELS 3 Zrotation Xrotation Yrotation
        End Site
        {
          OFFSET 0 -5 15
        }
      }
    }
  }
  JOINT pelvis_spine1
  {
    OFFSET 0 6.468898 -3.129235
    CHANNELS 3 Zrotation Xrotation Yrotation
    JOINT spine1
    {
      OFFSET 0 23.15396 4.99043
      CHANNELS 3 Zrotation Xrotation Yrotation
      JOINT spine2
      {
        OFFSET 0 20.79997 -5.064912
        CHANNELS 3 Zrotation Xrotation Yrotation
        JOINT neck
        {
          OFFSET 0 14.38658 9.616178
          CHANNELS 3 Zrotation Xrotation Yrotation
          End Site
          {
            OFFSET 0 20 0
          }
        }
      }
      JOINT right_manubrium
      {
        OFFSET -5.722621 16.35077 3.967754
        CHANNELS 3 Zrotation Xrotation Yrotation
        JOINT right_clavicle
        {
          OFFSET -13.16364 1.694482 -4.693211
          CHANNELS 3 Zrotation Xrotation Yrotation
          JOINT right_humerus
          {
            OFFSET -28.5034 -0.3100689 -2.792744
            CHANNELS 3 Zrotation Xrotation Yrotation
            JOINT right_radius
            {
              OFFSET -25.15693 0.02248979 -1.271978
              CHANNELS 3 Zrotation Xrotation Yrotation
              End Site
              {
                OFFSET -15 0 0
              }
            }
          }
        }
      }
      JOINT left_manubrium
      {
        OFFSET 5.722621 16.35077 3.967754
        CHANNELS 3 Zrotation Xrotation Yrotation
        JOINT left_clavicle
        {
          OFFSET 13.16364 1.694482 -4.693211
          CHANNELS 3 Zrotation Xrotation Yrotation
          JOINT left_humerus
          {
            OFFSET 29.39168 -1.063119 -2.237045
            CHANNELS 3 Zrotation Xrotation Yrotation
            JOINT left_radius
            {
              OFFSET 24.59957 -0.9528479 0.9047498
              CHANNELS 3 Zrotation Xrotation Yrotation
              End Site
              {
                OFFSET 15 -0 -0
              }
            }
          }
        }
      }
    }
  }
}
MOTION
Frames: 15
Frame Time: 0.0416666666667
0 103.5113 0 1.926988 -2.121244 0.5034893 1.752967 -9.679404 9.995928 -0 36.96678 -0 -7.032556 -15.81215 -2.49994 -7.930258 11.34721 -25.44019 -0 3.947029 -0 -3.019675 -20.41065 25.47066 -2.317967 -4.347259 5.681384 -1.389658 8.081808 -6.901622 0.7598266 22.09846 9.685998 7.239087 -19.48551 7.464951 6.977744 -19.37589 10.86883 88.27316 37.36479 -22.68918 -0 0 17.78712 -5.510033 8.397296 1.151078 7.475061 -21.17895 -3.871935 -102.0453 43.90414 30.05686 0 0 -24.33851 -10.7304 16.9462 28.29392
0.1874637 103.5845 1.140516 1.277102 -1.906377 1.037111 2.944228 -13.45895 9.990486 -0 40.69015 -0 -7.127414 -14.99733 -4.159149 -7.222224 11.80318 -25.1507 -0 4.100373 -0 -3.372496 -21.17704 24.58149 -1.821051 -3.649948 5.218053 -1.275863 8.258381 -7.081482 0.9338197 22.14179 9.530285 6.921414 -20.32237 7.937598 6.9591 -19.28474 10.7103 88.20863 37.26642 -22.72333 -0 0 17.59901 -5.839982 8.629651 1.37892 7.276284 -21.09914 -3.82004 -101.4652 43.28352 29.63033 0 0 -24.53011 -10.13093 17.01196 27.98022
0.3417279 103.549 2.428421 0.5635287 -1.488731 1.465697 4.112769 -17.477 9.936103 -0 41.86771 -0 -7.109865 -13.89144 -4.923739 -6.468688 12.10008 -24.74108 -0 4.298323 -0 -3.761955 -22.03458 23.66818 -1.446578 -2.777105 4.831479 -1.034448 8.335716 -7.248723 1.112326 21.88757 9.268461 6.606435 -21.21081 8.227865 6.946916 -19.25029 10.62462 88.06436 37.18014 -22.68786 -0 0 17.38951 -6.21112 8.875951 1.623121 7.431181 -21.34398 -3.507821 -100.517 42.65046 28.65641 0 0 -25.23035 -9.353098 17.16131 27.50814
0.4809567 103.523 4.214551 -0.1223253 -0.7772589 1.611201 5.314142 -21.32924 9.425439 -0 40.90615 -0 -6.97962 -12.26115 -5.114191 -5.813158 12.37113 -24.15386 -0 4.558098 -0 -4.211008 -22.96178 22.70173 -1.104187 -2.172818 4.676802 -0.6042622 8.132467 -7.300826 1.472878 21.67966 9.007997 6.437298 -22.03939 8.636699 6.721358 -18.86475 10.40166 88.1002 37.07689 -23.02485 -0 0 16.97285 -6.589336 9.14424 1.849521 7.723216 -21.58037 -3.096795 -99.68432 41.9764 27.63846 0 0 -26.26749 -8.522054 17.33496 26.87382
0.6279414 103.2021 6.20333 -0.6970237 -0.06141719 1.822558 6.182117 -25.33684 8.938754 -0 37.35534 -0 -6.724563 -10.4486 -4.709099 -5.368733 12.66293 -23.38002 -0 4.908778 -0 -4.694303 -24.00298 21.603 -0.8890922 -1.518783 4.688462 -0.06003803 7.956178 -7.209809 1.757966 21.40939 8.688785 6.232623 -22.76171 8.857623 6.495888 -18.32541 10.37869 88.12959 36.98792 -23.423 -0 0 16.39542 -6.995485 9.435077 2.051994 8.24765 -21.9607 -2.752741 -98.78014 41.3335 26.36036 0 0 -27.62149 -7.674186 17.50514 26.10858
0.7108879 102.706 8.426819 -0.9909982 0.7142181 1.986544 6.455631 -28.83318 8.341549 -0 31.95518 -0 -6.460065 -8.251621 -3.982307 -5.026176 12.99006 -22.63364 -0 5.553093 -0 -5.2396 -24.88277 20.17179 -0.7608218 -1.074603 4.813688 0.2829242 7.77724 -7.018693 1.920149 21.36274 8.393395 6.001204 -23.2321 8.944766 6.285292 -17.89627 10.22601 88.23063 36.89714 -23.73153 -0 0 15.744 -7.446898 9.73917 2.261168 8.748441 -22.55143 -2.114746 -97.82923 40.69132 25.0566 0 0 -28.80088 -6.842594 17.63511 25.33947
0.8586971 102.0552 10.99242 -1.144344 1.688505 2.224991 6.383961 -31.85596 7.308353 -0 25.47818 -0 -6.20702 -6.050862 -3.308099 -4.933616 13.37519 -21.58956 -0 6.161593 -0 -5.905865 -25.68179 18.5784 -0.7639237 -0.7463647 4.740456 0.5267986 7.4964 -7.065424 2.029694 21.2903 8.200465 5.787555 -23.51472 9.050013 5.918791 -17.70637 10.0959 88.20867 36.8474 -23.77375 -0 0 15.20708 -8.0002 10.05429 2.564469 9.170262 -23.00945 -1.765046 -96.84141 40.02525 23.80173 0 0 -29.64944 -6.08525 17.69848 24.63669
1.011798 101.2291 14.22302 -1.269509 2.568576 2.329838 6.362243 -33.96292 6.034393 -0 19.51359 -0 -6.055148 -4.338989 -2.787043 -4.958934 13.98117 -20.55887 -0 7.313511 -0 -6.767898 -26.28269 16.84581 -0.7148715 -0.6333235 4.582971 0.6461769 7.35601 -7.227044 2.058447 21.21693 8.139034 5.588764 -23.65883 9.188068 5.67563 -17.33747 9.911376 88.59599 36.77327 -24.03726 -0 0 14.66373 -8.530968 10.43621 2.935738 9.147754 -23.23095 -1.561436 -96.09396 39.29469 22.88565 0 0 -29.84683 -5.37756 17.67127 24.13811
1.153914 100.3844 18.02385 -1.464495 3.175863 2.549502 6.630104 -35.18213 5.04385 -0 15.36231 -0 -6.169397 -3.241543 -2.340117 -4.8751 14.6446 -19.55112 -0 9.349645 -0 -7.907087 -26.43078 14.93198 -0.4740846 -0.5096699 4.309572 0.7990114 7.20578 -7.553353 1.995646 21.1506 8.242202 5.420087 -23.77692 9.397573 5.49061 -17.03376 9.764916 89.01936 36.75343 -24.34423 -0 0 14.02924 -9.103882 10.88328 3.344552 8.829851 -23.26767 -1.538841 -95.45714 38.51204 22.31756 0 0 -29.40436 -4.757673 17.56049 23.76676
1.257108 99.80669 22.20175 -1.874643 3.736996 3.173325 6.865957 -35.11195 4.236707 -0 14.0277 -0 -6.601941 -2.563734 -2.27361 -4.397005 15.21856 -18.40994 -0 12.27447 -0 -9.320083 -25.74795 12.90779 0.03218082 -0.372735 3.745725 0.9576199 7.138455 -8.078783 1.85504 21.07544 8.388503 5.245935 -23.92061 9.558637 5.460184 -16.69431 9.641954 89.55164 36.76607 -24.69699 -0 0 13.37246 -9.74482 11.39333 3.843736 8.206337 -23.21997 -1.672212 -94.89834 37.67451 22.02301 0 0 -28.36935 -4.196574 17.36678 23.5166
1.334207 99.5073 27.23037 -2.488848 4.067764 3.722897 7.430545 -33.32903 3.784165 -0 15.19156 -0 -7.237632 -2.144243 -2.493223 -3.739208 15.294 -17.36076 -0 16.83124 -0 -10.8688 -23.82139 11.00905 0.8396599 -0.5807061 3.1215 1.041945 7.119991 -8.619639 1.624928 21.05396 8.530802 5.023602 -23.94346 9.61059 5.352266 -16.43912 9.477559 89.97238 36.82359 -24.90322 -0 0 12.83342 -10.55006 11.93722 4.453595 7.41662 -22.77105 -1.73672 -94.72122 36.71999 22.30428 0 0 -26.81018 -3.678982 17.09544 23.36896
1.465971 99.75985 32.67598 -3.187703 4.02514 4.343892 8.144791 -31.17179 3.677288 -0 16.53496 -0 -7.908226 -2.44023 -2.650089 -3.196262 14.77378 -16.05986 -0 23.28323 -0 -12.50339 -20.04719 9.355679 1.95073 -0.6033879 2.615358 1.037101 7.134153 -8.927251 1.356961 21.0269 8.615727 4.760869 -23.84214 9.530573 5.056787 -16.38334 9.636684 90.03818 36.9808 -24.63414 -0 0 12.53308 -11.57888 12.49355 5.224528 6.65031 -22.15895 -1.914681 -94.73208 35.73022 22.81561 0 0 -25.1521 -3.240971 16.76069 23.19959
1.650703 100.3197 38.49115 -3.619197 3.520611 4.377999 8.616226 -27.70897 3.527218 -0 17.40309 -0 -8.508615 -3.488556 -2.728062 -3.083091 13.14205 -14.70815 -0 32.05386 -0 -13.76931 -14.93967 7.993146 2.949662 -0.6772177 2.637682 0.9923799 7.427219 -8.72445 0.9954465 21.13088 8.604452 4.428942 -23.54656 9.217632 4.944285 -16.04868 9.916301 90.33349 37.16317 -24.43256 -0 0 12.10175 -12.60483 13.13007 6.02766 5.996943 -21.50183 -1.869905 -94.86561 34.69785 23.44147 0 0 -23.68294 -2.89345 16.38225 22.94365
1.900157 101.1713 44.35571 -3.456436 2.38588 3.721166 8.583101 -22.79828 3.112066 -0 17.47388 -0 -8.981321 -5.078834 -2.61819 -3.070202 9.483745 -13.5657 -0 42.36708 -0 -14.09238 -10.26933 7.048633 3.404393 -0.3162627 3.354542 0.9133281 8.027794 -8.074366 0.6856867 21.30325 8.491208 4.124104 -23.18415 8.80233 5.151057 -15.49073 10.39337 90.62302 37.38045 -24.23556 -0 0 11.56503 -13.72175 13.82962 6.904485 5.333847 -21.19622 -1.793642 -94.76899 33.65822 23.8525 0 0 -22.60566 -2.548898 16.0329 22.46956
2.025383 102.1822 49.92861 -2.904672 1.037516 3.272364 7.96796 -17.31957 2.351597 -0 16.22515 -0 -9.170637 -6.853664 -2.426384 -3.177134 4.523527 -12.05843 -0 52.17368 -0 -14.11225 -6.851894 6.901278 3.093934 0.2454928 4.461727 0.7616388 8.488395 -7.32267 0.6661099 21.69601 8.16939 3.999036 -22.71295 8.347358 5.394443 -15.6785 11.00038 90.03687 37.80722 -23.04585 -0 0 11.44918 -15.02957 14.55513 7.808957 4.755851 -20.93298 -1.769649 -94.55517 32.55911 24.17536 0 0 -21.9453 -2.113302 15.72661 21.70939
